{
  "accessors": [
    {
      "bufferView": 2,
      "componentType": 5126,
      "count": 28348,
      "max": [
        3.79624605178833,
        0.8140891790390015,
        0.057619497179985046
      ],
      "min": [
        -0.8621485233306885,
        -0.8140891790390015,
        -0.49257808923721313
      ],
      "type": "VEC3"
    },
    {
      "bufferView": 2,
      "byteOffset": 340176,
      "componentType": 5126,
      "count": 28348,
      "max": [
        1.0,
        1.0,
        1.0
      ],
      "min": [
        -1.0,
        -1.0,
        -1.0
      ],
      "type": "VEC3"
    },
    {
      "bufferView": 3,
      "componentType": 5126,
      "count": 28348,
      "max": [
        1.0,
        1.0,
        1.0,
        1.0
      ],
      "min": [
        -1.0,
        -1.0,
        -1.0,
        -1.0
      ],
      "type": "VEC4"
    },
    {
      "bufferView": 1,
      "componentType": 5126,
      "count": 28348,
      "max": [
        1.6016144752502441,
        0.99951171875
      ],
      "min": [
        1.00048828125,
        0.00048828125
      ],
      "type": "VEC2"
    },
    {
      "bufferView": 0,
      "componentType": 5125,
      "count": 109992,
      "type": "SCALAR"
    },
    {
      "bufferView": 2,
      "byteOffset": 680352,
      "componentType": 5126,
      "count": 448,
      "max": [
        3.7684876918792725,
        0.7862789034843445,
        -0.012268424034118652
      ],
      "min": [
        1.5960030555725098,
        -0.7864440083503723,
        -0.49257808923721313
      ],
      "type": "VEC3"
    },
    {
      "bufferView": 2,
      "byteOffset": 685728,
      "componentType": 5126,
      "count": 448,
      "max": [
        2.4330114683834836e-05,
        0.0,
        1.0
      ],
      "min": [
        -1.9435910871834494e-05,
        0.0,
        -1.0
      ],
      "type": "VEC3"
    },
    {
      "bufferView": 3,
      "byteOffset": 453568,
      "componentType": 5126,
      "count": 448,
      "max": [
        0.9959524273872375,
        0.996151864528656,
        1.747714350130991e-06,
        1.0
      ],
      "min": [
        -0.09245361387729645,
        0.08988230675458908,
        -2.2042906948627206e-06,
        1.0
      ],
      "type": "VEC4"
    },
    {
      "bufferView": 1,
      "byteOffset": 226784,
      "componentType": 5126,
      "count": 448,
      "max": [
        0.99951171875,
        0.9976896643638611
      ],
      "min": [
        0.00048828125,
        0.00048828125
      ],
      "type": "VEC2"
    },
    {
      "bufferView": 0,
      "byteOffset": 439968,
      "componentType": 5125,
      "count": 1356,
      "type": "SCALAR"
    }
  ],
  "asset": {
    "extras": {
      "author": "Kesenkai (https://sketchfab.com/kesenkai)",
      "license": "CC-BY-4.0 (http://creativecommons.org/licenses/by/4.0/)",
      "source": "https://sketchfab.com/3d-models/guitar-492a98a9613e4d4ba5b48d81f4061f09",
      "title": "Guitar"
    },
    "generator": "Sketchfab-13.49.0",
    "version": "2.0"
  },
  "bufferViews": [
    {
      "buffer": 0,
      "byteLength": 445392,
      "name": "floatBufferViews",
      "target": 34963
    },
    {
      "buffer": 0,
      "byteLength": 230368,
      "byteOffset": 445392,
      "byteStride": 8,
      "name": "floatBufferViews",
      "target": 34962
    },
    {
      "buffer": 0,
      "byteLength": 691104,
      "byteOffset": 675760,
      "byteStride": 12,
      "name": "floatBufferViews",
      "target": 34962
    },
    {
      "buffer": 0,
      "byteLength": 460736,
      "byteOffset": 1366864,
      "byteStride": 16,
      "name": "floatBufferViews",
      "target": 34962
    }
  ],
  "buffers": [
    {
      "byteLength": 1827600,
      "uri": "scene.bin"
    }
  ],
  "images": [
    {
      "uri": "textures/Material.002_baseColor.png"
    },
    {
      "uri": "textures/Material.002_metallicRoughness.png"
    },
    {
      "uri": "textures/Material.002_normal.png"
    },
    {
      "uri": "textures/Material.001_baseColor.png"
    },
    {
      "uri": "textures/Material.001_metallicRoughness.png"
    },
    {
      "uri": "textures/Material.001_normal.png"
    }
  ],
  "materials": [
    {
      "doubleSided": true,
      "name": "Material.002",
      "normalTexture": {
        "index": 2
      },
      "occlusionTexture": {
        "index": 1
      },
      "pbrMetallicRoughness": {
        "baseColorTexture": {
          "index": 0
        },
        "metallicRoughnessTexture": {
          "index": 1
        }
      }
    },
    {
      "doubleSided": true,
      "name": "Material.001",
      "normalTexture": {
        "index": 5
      },
      "occlusionTexture": {
        "index": 4
      },
      "pbrMetallicRoughness": {
        "baseColorTexture": {
          "index": 3
        },
        "metallicRoughnessTexture": {
          "index": 4
        }
      }
    }
  ],
  "meshes": [
    {
      "name": "Cube.072_Material.002_0",
      "primitives": [
        {
          "attributes": {
            "NORMAL": 1,
            "POSITION": 0,
            "TANGENT": 2,
            "TEXCOORD_0": 3
          },
          "indices": 4,
          "material": 0,
          "mode": 4
        }
      ]
    },
    {
      "name": "Cube.072_Material.001_0",
      "primitives": [
        {
          "attributes": {
            "NORMAL": 6,
            "POSITION": 5,
            "TANGENT": 7,
            "TEXCOORD_0": 8
          },
          "indices": 9,
          "material": 1,
          "mode": 4
        }
      ]
    }
  ],
  "nodes": [
    {
      "children": [
        1
      ],
      "matrix": [
        0.41488534212112427,
        -0.890394926071167,
        -0.1872618794441225,
        0.0,
        -0.4113938510417938,
        2.3013983115083866e-16,
        -0.9114576578140259,
        0.0,
        0.8115572929382324,
        0.45518881082534796,
        -0.36630302667617787,
        0.0,
        0.0,
        0.0,
        0.0,
        1.0
      ],
      "name": "Sketchfab_model"
    },
    {
      "children": [
        2
      ],
      "matrix": [
        0.009999999776482582,
        0.0,
        0.0,
        0.0,
        0.0,
        0.0,
        0.009999999776482582,
        0.0,
        0.0,
        -0.009999999776482582,
        0.0,
        0.0,
        0.0,
        0.0,
        0.0,
        1.0
      ],
      "name": "guitar.fbx"
    },
    {
      "children": [
        3
      ],
      "name": "RootNode"
    },
    {
      "children": [
        4,
        5
      ],
      "matrix": [
        100.0,
        0.0,
        0.0,
        0.0,
        -0.0,
        -1.629206793918314e-05,
        -99.99999999999868,
        0.0,
        0.0,
        99.99999999999868,
        -1.629206793918314e-05,
        0.0,
        -152.0047607421875,
        25.192413330078125,
        0.0,
        1.0
      ],
      "name": "Cube.072"
    },
    {
      "mesh": 0,
      "name": "Cube.072_Material.002_0"
    },
    {
      "mesh": 1,
      "name": "Cube.072_Material.001_0"
    }
  ],
  "samplers": [
    {
      "magFilter": 9729,
      "minFilter": 9987,
      "wrapS": 10497,
      "wrapT": 10497
    }
  ],
  "scene": 0,
  "scenes": [
    {
      "name": "Sketchfab_Scene",
      "nodes": [
        0
      ]
    }
  ],
  "textures": [
    {
      "sampler": 0,
      "source": 0
    },
    {
      "sampler": 0,
      "source": 1
    },
    {
      "sampler": 0,
      "source": 2
    },
    {
      "sampler": 0,
      "source": 3
    },
    {
      "sampler": 0,
      "source": 4
    },
    {
      "sampler": 0,
      "source": 5
    }
  ]
}
