{
  "accessors": [
    {
      "bufferView": 2,
      "componentType": 5126,
      "count": 17060,
      "max": [
        0.0625,
        1.4375,
        1.8125
      ],
      "min": [
        -0.59375,
        -1.5625,
        -0.3125
      ],
      "type": "VEC3"
    },
    {
      "bufferView": 2,
      "byteOffset": 204720,
      "componentType": 5126,
      "count": 17060,
      "max": [
        1.0,
        1.0,
        1.0
      ],
      "min": [
        -1.0,
        -1.0,
        -1.0
      ],
      "type": "VEC3"
    },
    {
      "bufferView": 1,
      "componentType": 5126,
      "count": 17060,
      "max": [
        0.8124020099639893,
        0.9999020099639893
      ],
      "min": [
        9.7999996796716e-05,
        0.12509800493717194
      ],
      "type": "VEC2"
    },
    {
      "bufferView": 0,
      "componentType": 5125,
      "count": 25590,
      "type": "SCALAR"
    }
  ],
  "asset": {
    "extras": {
      "author": "Business boy (https://sketchfab.com/Baboyo)",
      "license": "CC-BY-4.0 (http://creativecommons.org/licenses/by/4.0/)",
      "source": "https://sketchfab.com/3d-models/low-poly-ghetto-blaster-e0a7dfd0452f44b2becf78ba359accc6",
      "title": "Low poly Ghetto blaster"
    },
    "generator": "Sketchfab-12.68.0",
    "version": "2.0"
  },
  "bufferViews": [
    {
      "buffer": 0,
      "byteLength": 102360,
      "name": "floatBufferViews",
      "target": 34963
    },
    {
      "buffer": 0,
      "byteLength": 136480,
      "byteOffset": 102360,
      "byteStride": 8,
      "name": "floatBufferViews",
      "target": 34962
    },
    {
      "buffer": 0,
      "byteLength": 409440,
      "byteOffset": 238840,
      "byteStride": 12,
      "name": "floatBufferViews",
      "target": 34962
    }
  ],
  "buffers": [
    {
      "byteLength": 648280,
      "uri": "scene.bin"
    }
  ],
  "images": [
    {
      "uri": "textures/mini_ghettoblaster-export_baseColor.png"
    }
  ],
  "materials": [
    {
      "doubleSided": true,
      "name": "mini_ghettoblaster-export",
      "pbrMetallicRoughness": {
        "baseColorTexture": {
          "index": 0
        },
        "metallicFactor": 0.0,
        "roughnessFactor": 0.6
      }
    }
  ],
  "meshes": [
    {
      "name": "Object_0",
      "primitives": [
        {
          "attributes": {
            "NORMAL": 1,
            "POSITION": 0,
            "TEXCOORD_0": 2
          },
          "indices": 3,
          "material": 0,
          "mode": 4
        }
      ]
    }
  ],
  "nodes": [
    {
      "children": [
        1
      ],
      "matrix": [
        1.0,
        0.0,
        0.0,
        0.0,
        0.0,
        2.220446049250313e-16,
        -1.0,
        0.0,
        0.0,
        1.0,
        2.220446049250313e-16,
        0.0,
        0.0,
        0.0,
        0.0,
        1.0
      ],
      "name": "Sketchfab_model"
    },
    {
      "children": [
        2
      ],
      "name": "ghetto_blaster.obj.cleaner.materialmerger.gles"
    },
    {
      "mesh": 0,
      "name": "Object_2"
    }
  ],
  "samplers": [
    {
      "magFilter": 9728,
      "minFilter": 9986,
      "wrapS": 10497,
      "wrapT": 10497
    }
  ],
  "scene": 0,
  "scenes": [
    {
      "name": "Sketchfab_Scene",
      "nodes": [
        0
      ]
    }
  ],
  "textures": [
    {
      "sampler": 0,
      "source": 0
    }
  ]
}
